<svg width="28" height="25" viewBox="0 0 28 25" fill="none" xmlns="http://www.w3.org/2000/svg">
<path fill-rule="evenodd" clip-rule="evenodd" d="M15.2039 0.246083C14.9987 0.335287 14.8124 0.466027 14.6555 0.630813C14.4982 0.795183 14.3735 0.990447 14.2883 1.20542C14.2032 1.4204 14.1594 1.65086 14.1594 1.88361C14.1594 2.11636 14.2032 2.34682 14.2883 2.56179C14.3735 2.77677 14.4982 2.97203 14.6555 3.1364L21.4444 10.2475H2.12822C1.65029 10.2475 1.19193 10.4848 0.85398 10.9072C0.51603 11.3297 0.326172 11.9026 0.326172 12.5C0.326172 13.0975 0.51603 13.6704 0.85398 14.0928C1.19193 14.5153 1.65029 14.7526 2.12822 14.7526H21.4453L14.6555 21.8646C14.3384 22.1969 14.1603 22.6475 14.1603 23.1174C14.1603 23.5873 14.3384 24.0379 14.6555 24.3702C14.9726 24.7025 15.4027 24.8891 15.8511 24.8891C16.2995 24.8891 16.7296 24.7025 17.0467 24.3702L27.1786 13.7533C27.3359 13.5889 27.4607 13.3937 27.5458 13.1787C27.6309 12.9637 27.6748 12.7333 27.6748 12.5005C27.6748 12.2678 27.6309 12.0373 27.5458 11.8223C27.4607 11.6073 27.3359 11.4121 27.1786 11.2477L17.0467 0.630813C16.8898 0.466027 16.7034 0.335287 16.4983 0.246083C16.2931 0.156878 16.0732 0.110962 15.8511 0.110962C15.629 0.110962 15.409 0.156878 15.2039 0.246083Z" fill="#F58021"/>
</svg>

